<svg id="Layer_1" height="512" viewBox="0 0 64 64" width="512" xmlns="http://www.w3.org/2000/svg" data-name="Layer 1"><path d="m61 48h-1v-36a1 1 0 0 0 -1-1h-54a1 1 0 0 0 -1 1v36h-1a1 1 0 0 0 -1 1v2a3 3 0 0 0 3 3h54a3 3 0 0 0 3-3v-2a1 1 0 0 0 -1-1zm-55-35h52v35h-52zm54 38a1 1 0 0 1 -1 1h-54a1 1 0 0 1 -1-1v-1h56z"/><path d="m31 14h2v2h-2z"/><path d="m42 23.09v-6.09a1 1 0 0 0 -1-1h-4a1.006 1.006 0 0 0 -.555.168 22.738 22.738 0 0 1 -12.656 3.832h-1.789a1 1 0 0 0 -1 1v1h-7a1 1 0 0 0 -1 1v1h-4a1 1 0 0 0 -1 1v8a1 1 0 0 0 1 1h4v1a1 1 0 0 0 1 1v7.5a3.5 3.5 0 0 0 7 0v-6.5a1 1 0 0 0 1 1h1.789a22.738 22.738 0 0 1 12.656 3.832 1.006 1.006 0 0 0 .555.168h4a1 1 0 0 0 1-1v-6.09a5.993 5.993 0 0 0 0-11.82zm-29 8.91h-3v-6h3zm6 11.5a1.5 1.5 0 0 1 -3 0v-7.5h3zm2-9.5h-6v-10h6zm15 5.221a24.72 24.72 0 0 0 -12.211-3.221h-.789v-14h.789a24.72 24.72 0 0 0 12.211-3.221zm4 .779h-2v-22h2zm2-7.142v-7.716a3.981 3.981 0 0 1 0 7.716z"/><path d="m49 28h6v2h-6z"/><path d="m48.585 23.5h5.831v2h-5.831z" transform="matrix(.857 -.515 .515 .857 -5.265 29.997)"/><path d="m50.5 30.585h2v5.831h-2z" transform="matrix(.514 -.857 .857 .514 -3.723 60.425)"/></svg>